<svg width="80" height="80" viewBox="0 0 80 80" fill="none" xmlns="http://www.w3.org/2000/svg">
<g clip-path="url(#clip0)">
<path d="M47.5002 31.7188C46.6372 31.7188 45.9377 32.4184 45.9377 33.2812V33.4766C45.9377 34.3394 46.6372 35.0391 47.5002 35.0391C48.3632 35.0391 49.0627 34.3394 49.0627 33.4766V33.2812C49.0627 32.4184 48.3632 31.7188 47.5002 31.7188Z" fill="#3D3D3D"/>
<path d="M78.4385 0H1.56348C0.700508 0 0.000976562 0.699688 0.000976562 1.5625C0.000976562 2.42531 0.700508 3.125 1.56348 3.125H6.09473V53.7525H3.59473C2.96285 53.7525 2.39301 54.1333 2.15113 54.717C1.90926 55.3009 2.04301 55.973 2.48973 56.4198L14.0522 67.9823C14.3574 68.2873 14.7572 68.44 15.1571 68.44C15.5569 68.44 15.9569 68.2873 16.2619 67.9823L27.8244 56.4198C28.2713 55.973 28.4049 55.3009 28.163 54.717C27.9211 54.1333 27.3514 53.7525 26.7194 53.7525H24.2194V3.125H30.9382V65.3125H28.4382C27.8063 65.3125 27.2364 65.6933 26.9946 66.277C26.7527 66.8609 26.8864 67.533 27.3332 67.9798L38.8957 79.5423C39.2008 79.8473 39.6007 80 40.0005 80C40.4003 80 40.8003 79.8473 41.1053 79.5423L52.6678 67.9798C53.1147 67.533 53.2483 66.8609 53.0064 66.277C52.7652 65.6933 52.1953 65.3125 51.5635 65.3125H49.0635V40.8855C49.0635 40.0227 48.3639 39.323 47.501 39.323C46.638 39.323 45.9385 40.0227 45.9385 40.8855V66.875C45.9385 67.7378 46.638 68.4375 47.501 68.4375H47.7913L40.001 76.2277L32.2107 68.4375H32.501C33.3639 68.4375 34.0635 67.7378 34.0635 66.875V3.125H45.9385V26.25C45.9385 27.1128 46.638 27.8125 47.501 27.8125C48.3639 27.8125 49.0635 27.1128 49.0635 26.25V3.125H55.7822V53.7525H53.2822C52.6503 53.7525 52.0805 54.1333 51.8386 54.717C51.5968 55.3009 51.7305 55.973 52.1772 56.4198L63.7397 67.9823C64.0449 68.2873 64.4447 68.44 64.8446 68.44C65.2444 68.44 65.6444 68.2873 65.9494 67.9823L77.5119 56.4198C77.9588 55.973 78.0924 55.3009 77.8505 54.717C77.6086 54.1333 77.0389 53.7525 76.4069 53.7525H73.9069V3.125H78.4382C79.3011 3.125 80.0007 2.42531 80.0007 1.5625C80.0007 0.699688 79.3014 0 78.4385 0ZM15.1572 64.6677L7.36691 56.8775H7.65723C8.52019 56.8775 9.21973 56.1778 9.21973 55.315V3.125H21.0947V55.315C21.0947 56.1778 21.7943 56.8775 22.6572 56.8775H22.9475L15.1572 64.6677ZM64.8447 64.6677L57.0544 56.8775H57.3447C58.2077 56.8775 58.9072 56.1778 58.9072 55.315V3.125H70.7822V55.315C70.7822 56.1778 71.4818 56.8775 72.3447 56.8775H72.635L64.8447 64.6677Z" fill="#212156"/>
</g>
<defs>
<clipPath id="clip0">
<rect width="80" height="80" fill="white"/>
</clipPath>
</defs>
</svg>
