<svg width="81" height="80" viewBox="0 0 81 80" fill="none" xmlns="http://www.w3.org/2000/svg">
<g clip-path="url(#clip0)">
<path d="M73.8235 24.8051C74.6029 23.69 75.0625 22.335 75.0625 20.8744V18.8371C75.6613 18.6179 76.0897 18.0448 76.0897 17.3704V16.8864C76.0897 12.5291 72.5448 8.98415 68.1875 8.98415C63.8302 8.98415 60.2853 12.5291 60.2853 16.8864V17.3704C60.2853 18.0448 60.7137 18.6179 61.3125 18.8371V20.8744C61.3125 22.335 61.7715 23.69 62.5515 24.8051C58.6355 25.6071 55.6417 28.9658 55.3933 33.0546H46.3125C45.4495 33.0546 44.75 33.754 44.75 34.6171V44.3046H38.4115V34.6171C38.4115 33.754 37.7114 33.0546 36.849 33.0546H25.599C24.736 33.0546 24.0365 33.754 24.0365 34.6171V44.3046H18.4115V23.4574L29.3026 12.5663L36.5719 19.835C37.1511 20.4148 37.8433 20.8152 38.5781 21.0374V23.6759L35.3121 26.9419C35.0192 27.2349 34.8544 27.6322 34.8544 28.0466V30.9324C34.8544 31.7948 35.5544 32.4949 36.4169 32.4949C37.2799 32.4949 37.9794 31.7948 37.9794 30.9324V28.6942L40.1406 26.533L42.3019 28.6942V30.698C42.3019 31.5611 43.002 32.2605 43.8644 32.2605C44.7274 32.2605 45.4269 31.5611 45.4269 30.698V28.0466C45.4269 27.6322 45.2621 27.2349 44.9691 26.9419L41.7031 23.6759V20.9269C42.3184 20.6925 42.8951 20.3294 43.3901 19.835C44.3008 18.9243 44.8025 17.7134 44.8025 16.4256C44.8025 15.1377 44.3008 13.9274 43.3901 13.0167L32.0504 1.67641C32.0474 1.67397 32.0443 1.67153 32.0419 1.66909C29.7988 -0.559915 26.1605 -0.555643 23.9224 1.6813L10.0875 15.5161C6.87463 16.143 4.44116 18.9774 4.44116 22.3716V30.4636C4.44116 31.3261 5.14124 32.0261 6.00366 32.0261C6.8667 32.0261 7.56616 31.3261 7.56616 30.4636V28.1889C8.67273 28.9262 10.0002 29.3565 11.426 29.3565C12.8524 29.3565 14.1799 28.9262 15.2865 28.1889V44.8631C15.2126 44.8942 15.1406 44.9278 15.068 44.9613C13.9041 44.5274 12.6809 44.3046 11.426 44.3046C10.0625 44.3046 8.76062 44.5701 7.56616 45.048V42.0255C7.56616 41.1631 6.8667 40.463 6.00366 40.463C5.14062 40.463 4.44116 41.1631 4.44116 42.0255V46.9968C2.32935 48.9066 1 51.666 1 54.7306V78.4324C1 79.2948 1.69946 79.9949 2.5625 79.9949H73.8125C74.6749 79.9949 75.375 79.2948 75.375 78.4324V52.3685C78.5122 52.1555 81 49.5365 81 46.3456V33.6039C81 29.2698 77.9141 25.6425 73.8235 24.8051ZM68.1033 24.6226C66.0745 24.5774 64.4375 22.9142 64.4375 20.8744V18.9329H71.9375V20.8744C71.9375 22.9142 70.3005 24.5774 68.2717 24.6226H68.1033ZM72.842 15.8079H69.75V12.3722C71.2869 12.9063 72.4703 14.2033 72.842 15.8079ZM66.625 12.3722V15.8079H63.533C63.9047 14.2033 65.0881 12.9063 66.625 12.3722ZM65.5312 47.4296C67.6852 47.4296 69.4375 49.1819 69.4375 51.3358C69.4375 53.4898 67.6852 55.2421 65.5312 55.2421H18.0312C15.8773 55.2421 14.125 53.4898 14.125 51.3358C14.125 49.1819 15.8773 47.4296 18.0312 47.4296H65.5312ZM64.125 58.3671H65.5312C65.9036 58.3671 66.2686 58.3372 66.625 58.2816V76.8699H64.125V58.3671ZM11.083 52.4143C11.3052 53.8548 11.968 55.1511 12.9269 56.1637C12.5277 56.5409 11.9949 56.7594 11.426 56.7594C10.22 56.7594 9.23853 55.7786 9.23853 54.5719C9.23853 53.4831 10.0393 52.5797 11.083 52.4143ZM47.875 36.1796H56V44.3046H47.875V36.1796ZM27.1615 36.1796H35.2865V44.3046H27.1615V36.1796ZM23.9449 9.78676C24.6029 10.4441 25.3921 10.9214 26.2539 11.1955L17.8408 19.6085C17.1218 17.9466 15.7766 16.6172 14.103 15.9202L22.5417 7.48208C22.8103 8.32497 23.2772 9.11843 23.9449 9.78676ZM41.6775 16.4256C41.6775 16.8784 41.5005 17.3045 41.1801 17.6249C40.519 18.2865 39.4424 18.2865 38.7814 17.6249L31.5121 10.3562L32.0553 9.81362C32.7114 9.15688 33.1881 8.36892 33.464 7.50954L41.1801 15.2262C41.5005 15.5467 41.6775 15.9727 41.6775 16.4256ZM29.8452 3.89138C30.3414 4.38698 30.6143 5.04616 30.6143 5.74746C30.6143 6.3865 30.3854 6.98891 29.9703 7.46621C29.9282 7.50039 29.8867 7.53701 29.847 7.57668C28.829 8.59475 27.1725 8.59475 26.1544 7.57668C25.137 6.55861 25.137 4.90273 26.1544 3.88466C26.1782 3.86086 26.1996 3.83584 26.2216 3.81081C27.2506 2.87148 28.8503 2.89589 29.8452 3.89138ZM11.426 26.2315C9.29773 26.2315 7.56616 24.4999 7.56616 22.3716C7.56616 20.2427 9.29773 18.5111 11.426 18.5111C13.5549 18.5111 15.2865 20.2427 15.2865 22.3716C15.2865 24.4999 13.5549 26.2315 11.426 26.2315ZM4.125 54.7306C4.125 50.7047 7.40015 47.4296 11.426 47.4296C11.6744 47.4296 11.9204 47.4424 12.1639 47.4668C11.8002 48.0167 11.5109 48.6198 11.3125 49.2625C8.4353 49.3235 6.11353 51.6807 6.11353 54.5719C6.11353 57.5016 8.49695 59.8844 11.426 59.8844C13.0532 59.8844 14.5583 59.1496 15.5551 57.9154C16.3259 58.2066 17.1603 58.3671 18.0312 58.3671H18.7277V76.8693H4.125V54.7306ZM61 76.8699H21.8527V65.8671H40.1406C41.0037 65.8671 41.7031 65.167 41.7031 64.3046C41.7031 63.4415 41.0037 62.7421 40.1406 62.7421H21.8527V58.3671H61V76.8699ZM69.75 76.8699V56.9572C70.92 56.0764 71.8075 54.8405 72.25 53.4104V76.8699H69.75ZM77.875 46.3456C77.875 47.8117 76.7855 49.025 75.375 49.2271V35.9422C75.375 35.0791 74.6755 34.3797 73.8125 34.3797C72.9495 34.3797 72.25 35.0791 72.25 35.9422V45.6425V45.6455V49.2612C71.3625 46.3938 68.6862 44.3046 65.5312 44.3046H64.125V35.9422C64.125 35.0791 63.4255 34.3797 62.5625 34.3797C61.6995 34.3797 61 35.0791 61 35.9422V44.3046H59.125V34.6171C59.125 34.1093 58.8815 33.6588 58.5061 33.3738C58.6276 30.2506 61.2045 27.7476 64.3569 27.7476H68.1033C68.1313 27.7476 68.1594 27.7494 68.1875 27.7494C68.2162 27.7494 68.2437 27.7482 68.2717 27.7476H72.0187C75.248 27.7476 77.875 30.3745 77.875 33.6039V46.3456Z" fill="#212156"/>
<path d="M6.00305 38.2758C6.41382 38.2758 6.81726 38.1085 7.10779 37.8174C7.40015 37.5269 7.56555 37.124 7.56555 36.7133C7.56555 36.3019 7.40015 35.899 7.10779 35.6085C6.81726 35.3174 6.41565 35.1508 6.00305 35.1508C5.59229 35.1508 5.18884 35.3174 4.89832 35.6085C4.60779 35.899 4.44055 36.3019 4.44055 36.7133C4.44055 37.124 4.60779 37.5269 4.89832 37.8174C5.18884 38.1085 5.59229 38.2758 6.00305 38.2758Z" fill="#212156"/>
<path d="M11.4266 20.8081C11.014 20.8081 10.6124 20.9753 10.3219 21.2659C10.0314 21.557 9.86414 21.9598 9.86414 22.3706C9.86414 22.7832 10.0314 23.1848 10.3219 23.4753C10.6124 23.7659 11.014 23.9331 11.4266 23.9331C11.8374 23.9331 12.2402 23.7659 12.5314 23.4753C12.8219 23.1848 12.9891 22.782 12.9891 22.3706C12.9891 21.9598 12.8219 21.557 12.5314 21.2659C12.2402 20.9753 11.8374 20.8081 11.4266 20.8081Z" fill="#212156"/>
<path d="M26.8954 6.83472C27.1871 7.12524 27.5887 7.29248 28.0001 7.29248C28.4121 7.29248 28.8137 7.12524 29.1061 6.83472C29.3966 6.54419 29.5638 6.14136 29.5638 5.72998C29.5638 5.31921 29.3966 4.91638 29.1061 4.62524C28.8137 4.33533 28.4121 4.16748 28.0001 4.16748C27.5887 4.16748 27.1871 4.33472 26.8954 4.62524C26.6049 4.91638 26.4388 5.31921 26.4388 5.72998C26.4388 6.14136 26.6049 6.54419 26.8954 6.83472Z" fill="#212156"/>
<path d="M32.5625 49.7723C32.1517 49.7723 31.7483 49.9396 31.4578 50.2301C31.1672 50.5212 31 50.9241 31 51.3348C31 51.7456 31.1672 52.149 31.4578 52.4396C31.7483 52.7313 32.1517 52.8973 32.5625 52.8973C32.9733 52.8973 33.3767 52.7313 33.6672 52.4396C33.9578 52.149 34.125 51.7456 34.125 51.3348C34.125 50.9241 33.9578 50.5206 33.6672 50.2301C33.3767 49.9396 32.9733 49.7723 32.5625 49.7723Z" fill="#212156"/>
<path d="M22.5625 49.7723C22.1517 49.7723 21.7483 49.9396 21.4578 50.2301C21.1672 50.5212 21 50.9241 21 51.3348C21 51.7474 21.1672 52.149 21.4578 52.4396C21.7483 52.7301 22.1499 52.8973 22.5625 52.8973C22.9733 52.8973 23.3767 52.7301 23.6672 52.4396C23.9578 52.149 24.125 51.7474 24.125 51.3348C24.125 50.9241 23.9578 50.5206 23.6672 50.2301C23.3767 49.9396 22.9733 49.7723 22.5625 49.7723Z" fill="#212156"/>
<path d="M62.5625 52.8973C62.9733 52.8973 63.3767 52.7313 63.6672 52.4396C63.9578 52.149 64.125 51.7474 64.125 51.3348C64.125 50.9241 63.9578 50.5206 63.6672 50.2301C63.3767 49.9396 62.9733 49.7723 62.5625 49.7723C62.1517 49.7723 61.7483 49.9396 61.4578 50.2301C61.1672 50.5212 61 50.9241 61 51.3348C61 51.7474 61.1672 52.149 61.4578 52.4396C61.7483 52.7319 62.1517 52.8973 62.5625 52.8973Z" fill="#212156"/>
<path d="M42.5625 49.7723C42.1517 49.7723 41.7483 49.9396 41.4578 50.2301C41.1672 50.5212 41 50.9241 41 51.3348C41 51.7456 41.1672 52.149 41.4578 52.4396C41.7483 52.7313 42.1517 52.8973 42.5625 52.8973C42.9733 52.8973 43.3767 52.7313 43.6672 52.4396C43.9578 52.149 44.125 51.7474 44.125 51.3348C44.125 50.9241 43.9578 50.5206 43.6672 50.2301C43.3767 49.9396 42.9733 49.7723 42.5625 49.7723Z" fill="#212156"/>
<path d="M52.5625 49.7723C52.1517 49.7723 51.7483 49.9396 51.4578 50.2301C51.1672 50.5212 51 50.9241 51 51.3348C51 51.7456 51.1672 52.149 51.4578 52.4396C51.7483 52.7313 52.1517 52.8973 52.5625 52.8973C52.9733 52.8973 53.3767 52.7313 53.6672 52.4396C53.9578 52.149 54.125 51.7456 54.125 51.3348C54.125 50.9241 53.9578 50.5206 53.6672 50.2301C53.3767 49.9396 52.9733 49.7723 52.5625 49.7723Z" fill="#212156"/>
<path d="M46.1404 65.8661C46.5518 65.8661 46.9546 65.7001 47.2451 65.4083C47.5356 65.1178 47.7029 64.7162 47.7029 64.3036C47.7029 63.8928 47.5356 63.4894 47.2451 63.1989C46.9546 62.9083 46.553 62.7411 46.1404 62.7411C45.7296 62.7411 45.3262 62.9083 45.0356 63.1989C44.7451 63.4894 44.5779 63.8928 44.5779 64.3036C44.5779 64.7162 44.7451 65.1178 45.0356 65.4083C45.3262 65.7007 45.7296 65.8661 46.1404 65.8661Z" fill="#212156"/>
</g>
<defs>
<clipPath id="clip0">
<rect width="80" height="80" fill="white" transform="translate(0.5)"/>
</clipPath>
</defs>
</svg>
