<svg width="81" height="80" viewBox="0 0 81 80" fill="none" xmlns="http://www.w3.org/2000/svg">
<g clip-path="url(#clip0)">
<path d="M46.5522 29.4724H11.5306C10.6677 29.4724 9.96814 30.172 9.96814 31.0349V59.162C9.96814 60.025 10.6677 60.7246 11.5306 60.7246H46.5522C47.4152 60.7246 48.1147 60.0249 48.1147 59.162V31.0349C48.1147 30.172 47.4152 29.4724 46.5522 29.4724ZM44.9897 57.5995H13.0931V40.1564H44.9897V57.5995ZM44.9897 37.0314H13.0931V32.5974H44.9897V37.0314Z" fill="#212156212156"/>
<path d="M46.5522 6.23782H11.5306C10.6677 6.23782 9.96814 6.93735 9.96814 7.80032V18.5594C9.96814 19.4222 10.6677 20.1219 11.5306 20.1219H46.5522C47.4152 20.1219 48.1147 19.4222 48.1147 18.5594V7.80032C48.1147 6.93735 47.4152 6.23782 46.5522 6.23782ZM44.9897 16.9969H13.0931V14.5513H35.2116C36.0745 14.5513 36.7741 13.8516 36.7741 12.9888C36.7741 12.1259 36.0745 11.4263 35.2116 11.4263H13.0931V9.36282H44.9897V16.9969Z" fill="#212156"/>
<path d="M41.8672 11.8844C41.5032 11.5203 40.9641 11.3547 40.4563 11.4562C40.3563 11.4767 40.2579 11.5062 40.1641 11.5453C40.0688 11.5844 39.9782 11.633 39.8938 11.689C39.8079 11.7469 39.7282 11.8125 39.6563 11.8844C39.5844 11.9562 39.5188 12.0361 39.4625 12.122C39.4063 12.2064 39.3579 12.297 39.3188 12.3908C39.2797 12.4861 39.25 12.5845 39.2297 12.683C39.2094 12.7844 39.1985 12.8876 39.1985 12.9892C39.1985 13.0908 39.2094 13.1939 39.2297 13.2939C39.25 13.3937 39.2797 13.4922 39.3188 13.5859C39.3579 13.6811 39.4063 13.7717 39.4625 13.8561C39.5188 13.942 39.5844 14.0217 39.6563 14.0937C39.9485 14.3842 40.35 14.5515 40.761 14.5515C41.1719 14.5515 41.575 14.3844 41.8657 14.0937C42.1579 13.8031 42.3235 13.4 42.3235 12.989C42.3235 12.5781 42.1579 12.175 41.8672 11.8844Z" fill="#212156"/>
<path d="M19.1611 41.7425C16.6228 41.7425 14.5576 43.8077 14.5576 46.346C14.5576 48.8842 16.6226 50.9494 19.1611 50.9494C21.6993 50.9494 23.7643 48.8842 23.7643 46.346C23.7643 43.8077 21.6993 41.7425 19.1611 41.7425ZM19.1611 47.8244C18.3459 47.8244 17.6826 47.1613 17.6826 46.346C17.6826 45.5308 18.3457 44.8675 19.1611 44.8675C19.9762 44.8675 20.6393 45.5306 20.6393 46.346C20.6393 47.1613 19.9762 47.8244 19.1611 47.8244Z" fill="#212156"/>
<path d="M20.4083 52.9117H17.9133C17.0504 52.9117 16.3508 53.6114 16.3508 54.4742C16.3508 55.337 17.0504 56.0367 17.9133 56.0367H20.4083C21.2713 56.0367 21.9708 55.337 21.9708 54.4742C21.9708 53.6112 21.2713 52.9117 20.4083 52.9117Z" fill="#212156"/>
<path d="M29.0413 41.7425C26.503 41.7425 24.4379 43.8077 24.4379 46.346C24.438 48.8842 26.503 50.9494 29.0413 50.9494C31.5796 50.9494 33.6447 48.8842 33.6447 46.346C33.6447 43.8077 31.5796 41.7425 29.0413 41.7425ZM29.0413 47.8244C28.2261 47.8244 27.5629 47.1613 27.5629 46.346C27.563 45.5308 28.2261 44.8675 29.0413 44.8675C29.8565 44.8675 30.5197 45.5306 30.5197 46.346C30.5197 47.1613 29.8565 47.8244 29.0413 47.8244Z" fill="#212156"/>
<path d="M30.2889 52.9117H27.7937C26.9307 52.9117 26.2312 53.6114 26.2312 54.4742C26.2312 55.337 26.9307 56.0367 27.7937 56.0367H30.2887C31.1517 56.0367 31.8512 55.337 31.8512 54.4742C31.8514 53.6112 31.1518 52.9117 30.2889 52.9117Z" fill="#212156"/>
<path d="M38.9217 41.7425C36.3834 41.7425 34.3182 43.8077 34.3182 46.346C34.3182 48.8842 36.3834 50.9494 38.9217 50.9494C41.46 50.9494 43.525 48.8842 43.525 46.346C43.525 43.8077 41.46 41.7425 38.9217 41.7425ZM38.9217 47.8244C38.1065 47.8244 37.4432 47.1613 37.4432 46.346C37.4432 45.5308 38.1065 44.8675 38.9217 44.8675C39.7368 44.8675 40.4 45.5306 40.4 46.346C40.4 47.1613 39.7368 47.8244 38.9217 47.8244Z" fill="#212156"/>
<path d="M40.1692 52.9117H37.6742C36.8112 52.9117 36.1117 53.6114 36.1117 54.4742C36.1117 55.337 36.8112 56.0367 37.6742 56.0367H40.1692C41.0322 56.0367 41.7317 55.337 41.7317 54.4742C41.7317 53.6112 41.0322 52.9117 40.1692 52.9117Z" fill="#212156"/>
<path d="M15.2235 65.0933C15.2032 64.9953 15.1735 64.8969 15.1344 64.8014C15.0954 64.7077 15.0469 64.617 14.9907 64.5327C14.9329 64.4467 14.8688 64.367 14.7969 64.2952C14.4329 63.9327 13.8938 63.7653 13.386 63.867C13.286 63.8873 13.1875 63.9169 13.0938 63.9559C13 63.995 12.9094 64.0436 12.8235 64.0999C12.7391 64.1575 12.6579 64.2231 12.586 64.2952C12.2954 64.5856 12.1282 64.9888 12.1282 65.3997C12.1282 65.5013 12.1391 65.6044 12.1594 65.7044C12.1797 65.8044 12.2094 65.9028 12.2485 65.9966C12.2875 66.0919 12.336 66.1824 12.3922 66.2667C12.4485 66.3528 12.5141 66.4324 12.586 66.5044C12.6579 66.5763 12.7391 66.6419 12.8235 66.6981C12.9094 66.7542 13 66.8028 13.0938 66.8419C13.1875 66.881 13.286 66.9105 13.386 66.9308C13.4875 66.9513 13.5891 66.962 13.6922 66.962C14.1032 66.962 14.5047 66.795 14.7969 66.5042C14.8688 66.4324 14.9329 66.3527 14.9907 66.2666C15.0469 66.1822 15.0954 66.0917 15.1344 65.9964C15.1735 65.9025 15.2032 65.8042 15.2235 65.7042C15.2438 65.6042 15.2532 65.5011 15.2532 65.3995C15.2532 65.2981 15.2438 65.1949 15.2235 65.0933Z" fill="#212156"/>
<path d="M45.9235 71.947C45.9031 71.8467 45.8735 71.7484 45.8344 71.6547C45.7953 71.5594 45.7469 71.4687 45.6906 71.3844C45.6344 71.2984 45.5688 71.2187 45.4969 71.1469C45.425 71.075 45.3438 71.0094 45.2594 70.9531C45.1735 70.897 45.0828 70.8484 44.9891 70.8094C44.8953 70.7703 44.7969 70.7408 44.6969 70.7203C44.1891 70.6173 43.65 70.7844 43.286 71.1469C43.2141 71.2187 43.1485 71.2984 43.0922 71.3844C43.036 71.4687 42.9875 71.5594 42.9485 71.6547C42.9094 71.7484 42.8797 71.8467 42.8594 71.9469C42.8391 72.0469 42.8297 72.15 42.8297 72.2516C42.8297 72.353 42.8391 72.4562 42.8594 72.5561C42.8797 72.6562 42.9094 72.7547 42.9485 72.8483C42.9875 72.9436 43.036 73.0342 43.0922 73.1186C43.1485 73.2045 43.2141 73.2842 43.286 73.3561C43.5782 73.6467 43.9797 73.8141 44.3907 73.8141C44.4938 73.8141 44.5953 73.8045 44.6969 73.7844C44.7969 73.7641 44.8953 73.7344 44.9891 73.6953C45.0828 73.6562 45.1735 73.6078 45.2594 73.5516C45.3438 73.4937 45.425 73.4281 45.4969 73.3562C45.5688 73.2844 45.6328 73.2047 45.6906 73.1187C45.7469 73.0344 45.7953 72.9437 45.8344 72.8484C45.8735 72.7547 45.9031 72.6564 45.9235 72.5562C45.9438 72.4562 45.9531 72.3531 45.9531 72.2517C45.9531 72.1501 45.9438 72.0469 45.9235 71.947Z" fill="#212156"/>
<path d="M76.7071 11.3514H54.3523V1.5625C54.3523 0.699531 53.6527 0 52.7898 0H5.29272C4.42976 0 3.73022 0.699531 3.73022 1.5625V78.4375C3.73022 79.3003 4.42976 80 5.29272 80H52.7898C53.6527 80 54.3523 79.3003 54.3523 78.4375V52.4739H64.7483C65.6113 52.4739 66.3108 51.7742 66.3108 50.9114V41.4039H68.1012C68.9641 41.4039 69.6637 40.7042 69.6637 39.8414V34.8695H76.7071C77.5701 34.8695 78.2696 34.17 78.2696 33.307V12.9139C78.2696 12.0511 77.5701 11.3514 76.7071 11.3514ZM51.2273 63.8372H19.2412C18.3782 63.8372 17.6787 64.5369 17.6787 65.3997C17.6787 66.2625 18.3782 66.9622 19.2412 66.9622H51.2273V76.875H6.85522V73.8142H38.8413C39.7043 73.8142 40.4038 73.1145 40.4038 72.2517C40.4038 71.3889 39.7043 70.6892 38.8413 70.6892H6.85522V26.3595H51.2273V63.8372ZM51.2273 23.2345H6.85522V3.125H51.2273V23.2345ZM63.186 49.3489H63.1858H54.3523V34.8695H59.8332V39.8414C59.8332 40.7042 60.5327 41.4039 61.3957 41.4039H63.186V49.3489ZM66.5387 38.2789H62.9582V34.8695H66.5387V38.2789ZM54.3523 31.7445V26.6614H56.256C56.9287 26.6614 57.5257 26.2309 57.7383 25.5928L58.0154 24.7612L59.0237 29.298C59.1612 29.9167 59.6585 30.3909 60.283 30.4989C60.3719 30.5142 60.461 30.5217 60.5491 30.5217C61.0804 30.5217 61.5832 30.2503 61.8721 29.79L64.7315 25.2355L66.8021 26.8445C67.1951 27.15 67.7101 27.2495 68.1887 27.1138C68.6674 26.9773 69.0524 26.6213 69.2257 26.1545L70.5991 22.4539L71.4015 25.4972C71.5823 26.1834 72.2027 26.6614 72.9123 26.6614H75.1444V31.7445H54.3523ZM75.1446 23.5363H74.1163L72.3626 16.8841C72.189 16.2252 71.6084 15.7548 70.9279 15.7217C70.248 15.6873 69.6238 16.0998 69.3868 16.7388L67.0371 23.0695L65.2852 21.7081C64.9366 21.4372 64.4894 21.3259 64.0548 21.4031C63.6199 21.4798 63.2379 21.7372 63.0032 22.1109L61.2487 24.9056L59.8418 18.5748C59.6894 17.8891 59.0984 17.3894 58.3968 17.3534C57.6983 17.3137 57.056 17.7537 56.834 18.4198L55.1293 23.5364H54.3519V14.4764H75.1446V23.5363Z" fill="#212156"/>
</g>
<defs>
<clipPath id="clip0">
<rect width="80" height="80" fill="white" transform="translate(0.5)"/>
</clipPath>
</defs>
</svg>
