<svg xmlns="http://www.w3.org/2000/svg" width="80" height="80" viewBox="0 0 80 80" fill="none">
<path d="M18.5721 47.9489C17.7092 47.9489 17.0096 48.6484 17.0096 49.5114V70.6291C17.0096 71.492 17.7092 72.1916 18.5721 72.1916C19.4351 72.1916 20.1346 71.492 20.1346 70.6291V49.5114C20.1346 48.6484 19.4351 47.9489 18.5721 47.9489Z" fill="#3D3D3D"/>
<path d="M29.285 47.9489C28.422 47.9489 27.7225 48.6484 27.7225 49.5114V70.6291C27.7225 71.492 28.422 72.1916 29.285 72.1916C30.1479 72.1916 30.8475 71.492 30.8475 70.6291V49.5114C30.8475 48.6484 30.1479 47.9489 29.285 47.9489Z" fill="#3D3D3D"/>
<path d="M39.9977 47.9489C39.1348 47.9489 38.4352 48.6484 38.4352 49.5114V70.6291C38.4352 71.492 39.1348 72.1916 39.9977 72.1916C40.8607 72.1916 41.5602 71.492 41.5602 70.6291V49.5114C41.5602 48.6484 40.8607 47.9489 39.9977 47.9489Z" fill="#3D3D3D"/>
<path d="M50.715 72.1916C51.578 72.1916 52.2775 71.492 52.2775 70.6291V49.5114C52.2775 48.6484 51.578 47.9489 50.715 47.9489C49.8521 47.9489 49.1525 48.6484 49.1525 49.5114V70.6291C49.1525 71.492 49.8521 72.1916 50.715 72.1916Z" fill="#3D3D3D"/>
<path d="M61.4279 72.1916C62.2908 72.1916 62.9904 71.492 62.9904 70.6291V49.5114C62.9904 48.6484 62.2908 47.9489 61.4279 47.9489C60.5649 47.9489 59.8654 48.6484 59.8654 49.5114V70.6291C59.8654 71.492 60.5649 72.1916 61.4279 72.1916Z" fill="#3D3D3D"/>
<path d="M75.8594 76.875H73.7031V37.6981H75.8594C76.7223 37.6981 77.4219 36.9986 77.4219 36.1356C77.4219 35.2727 76.7223 34.5731 75.8594 34.5731H68.5484V32.8139C68.5484 30.1231 66.3583 27.9341 63.6661 27.9341H61.1264C60.5939 27.9341 60.0814 28.0208 59.6012 28.1787L44.5195 22.6277C45.282 21.8509 45.8288 20.8548 46.048 19.7278C46.2128 18.8808 45.6597 18.0605 44.8127 17.8956C43.9647 17.7305 43.1453 18.2839 42.9805 19.1309C42.7445 20.3436 41.6712 21.2237 40.4284 21.2241C40.4278 21.2241 40.4273 21.2241 40.4267 21.2241C38.9937 21.2236 37.8281 20.0591 37.8281 18.6278C37.8281 17.1961 38.9942 16.0314 40.4275 16.0314C41.2905 16.0314 41.99 15.3319 41.99 14.4689V9.91031H50.3869C51.2498 9.91031 51.9494 9.21078 51.9494 8.34781V1.5625C51.9494 0.699531 51.2498 0 50.3869 0H29.613C28.75 0 28.0505 0.699531 28.0505 1.5625V8.34781C28.0505 9.21078 28.75 9.91031 29.613 9.91031H38.8652V13.1247C36.4661 13.8063 34.7033 16.0144 34.7033 18.6277C34.7033 20.1827 35.328 21.5939 36.3387 22.6262L20.817 28.3377C20.2209 28.0786 19.5641 27.9341 18.8736 27.9341H16.3339C13.6419 27.9341 11.4516 30.1231 11.4516 32.8139V34.5731H4.14062C3.27766 34.5731 2.57812 35.2727 2.57812 36.1356C2.57812 36.9986 3.27766 37.6981 4.14062 37.6981H6.29688V76.875H4.14062C3.27766 76.875 2.57812 77.5745 2.57812 78.4375C2.57812 79.3005 3.27766 80 4.14062 80H75.8594C76.7223 80 77.4219 79.3005 77.4219 78.4375C77.4219 77.5745 76.7223 76.875 75.8594 76.875ZM31.1755 6.78531V3.125H48.8245V6.78531H31.1755ZM61.1264 31.0591H63.6661C64.635 31.0591 65.4234 31.8463 65.4234 32.8139V34.5731H59.3648V32.8139C59.3648 31.8463 60.1552 31.0591 61.1264 31.0591ZM40.4277 24.4514L56.8309 30.4889C56.4541 31.1805 56.2398 31.9727 56.2398 32.8139V34.5731H23.7602V32.8139C23.7602 32.0778 23.5952 31.3797 23.3016 30.7531L40.4277 24.4514ZM14.5766 32.8139C14.5766 31.8463 15.3648 31.0591 16.3339 31.0591H18.8736C19.845 31.0591 20.6353 31.8463 20.6353 32.8139V34.5731H14.5766V32.8139ZM70.5781 41.23H47.023C46.16 41.23 45.4605 41.9295 45.4605 42.7925C45.4605 43.6555 46.16 44.355 47.023 44.355H70.5781V76.875H9.42188V44.355H32.977C33.84 44.355 34.5395 43.6555 34.5395 42.7925C34.5395 41.9295 33.84 41.23 32.977 41.23H9.42188V37.6981H70.5781V41.23Z" fill="#212156"/>
<path d="M40.0023 41.23C39.1393 41.23 38.4398 41.9295 38.4398 42.7925C38.4398 43.6555 39.1393 44.355 40.0023 44.355H40.0066C40.8696 44.355 41.5669 43.6555 41.5669 42.7925C41.5669 41.9295 40.8652 41.23 40.0023 41.23Z" fill="#FF6C0A"/>
</svg>